<svg width="52" height="52" viewBox="0 0 52 52" fill="none" xmlns="http://www.w3.org/2000/svg">
<g filter="url(#filter0_d_20_24)">
<path fill-rule="evenodd" clip-rule="evenodd" d="M26 41C34.2843 41 41 34.2843 41 26C41 17.7157 34.2843 11 26 11C17.7157 11 11 17.7157 11 26C11 34.2843 17.7157 41 26 41ZM25.9937 21C27.375 21 28.6187 21.5625 29.525 22.4688L30.9937 21V25.375H26.6187L28.6313 23.3625C27.9563 22.6812 27.0312 22.25 25.9937 22.25C23.925 22.25 22.2437 23.9312 22.2437 26C22.2437 28.0688 23.925 29.75 25.9937 29.75C27.625 29.75 29.0125 28.7062 29.525 27.25H30.825C30.2688 29.4062 28.325 31 25.9937 31C23.2312 31 21 28.7625 21 26C21 23.2375 23.2312 21 25.9937 21Z" fill="white"/>
</g>
<defs>
<filter id="filter0_d_20_24" x="0" y="0" width="52" height="52" filterUnits="userSpaceOnUse" color-interpolation-filters="sRGB">
<feFlood flood-opacity="0" result="BackgroundImageFix"/>
<feColorMatrix in="SourceAlpha" type="matrix" values="0 0 0 0 0 0 0 0 0 0 0 0 0 0 0 0 0 0 127 0" result="hardAlpha"/>
<feOffset/>
<feGaussianBlur stdDeviation="5.5"/>
<feComposite in2="hardAlpha" operator="out"/>
<feColorMatrix type="matrix" values="0 0 0 0 0.330833 0 0 0 0 0.5985 0 0 0 0 1 0 0 0 1 0"/>
<feBlend mode="normal" in2="BackgroundImageFix" result="effect1_dropShadow_20_24"/>
<feBlend mode="normal" in="SourceGraphic" in2="effect1_dropShadow_20_24" result="shape"/>
</filter>
</defs>
</svg>
